<svg xmlns="http://www.w3.org/2000/svg" width="1200" height="630" viewBox="0 0 1200 630">
  <rect width="1200" height="630" fill="#f5f1ea"/>
  <g stroke="#0e1822" stroke-width="0.5" opacity="0.25">
    <line x1="60" y1="60" x2="1140" y2="60"/>
    <line x1="60" y1="62" x2="1140" y2="62"/>
    <line x1="60" y1="568" x2="1140" y2="568"/>
    <line x1="60" y1="570" x2="1140" y2="570"/>
  </g>
  <g font-family="monospace" fill="#52607a">
    <text x="80" y="98" font-size="13" letter-spacing="4">CASE FILE · INCIDENT-001 · CLASSIFIED</text>
    <text x="1120" y="98" font-size="13" letter-spacing="2" text-anchor="end" fill="#9b1c1c">RED-TEAM SIM</text>
  </g>
  <line x1="80" y1="118" x2="1120" y2="118" stroke="#0e1822" stroke-width="0.7"/>
  <g font-family="serif">
    <text x="80" y="240" font-size="120" font-weight="800" fill="#0e1822" letter-spacing="-3" font-style="italic">Economic</text>
    <text x="80" y="340" font-size="120" font-weight="800" fill="#9b1c1c" letter-spacing="-3" font-style="italic">Fuzz</text>
    <text x="80" y="395" font-size="26" fill="#243241" font-style="italic">A forensic simulator for DeFi attack surfaces.</text>
  </g>
  <g transform="translate(80,440)" font-family="monospace" font-size="14" fill="#243241">
    <rect x="0" y="0" width="170" height="40" fill="#efe8dc" stroke="#0e1822"/>
    <text x="14" y="26" fill="#9b1c1c">› ORACLE MANIP</text>
    <rect x="184" y="0" width="170" height="40" fill="#efe8dc" stroke="#0e1822"/>
    <text x="198" y="26" fill="#9b1c1c">› MEV SANDWICH</text>
    <rect x="368" y="0" width="170" height="40" fill="#efe8dc" stroke="#0e1822"/>
    <text x="382" y="26" fill="#9b1c1c">› FLASH LOAN</text>
    <rect x="552" y="0" width="170" height="40" fill="#efe8dc" stroke="#0e1822"/>
    <text x="566" y="26" fill="#9b1c1c">› GOVERNANCE</text>
  </g>
  <g transform="translate(820,170)">
    <rect x="0" y="0" width="260" height="280" fill="#efe8dc" stroke="#0e1822" stroke-width="2"/>
    <g font-family="monospace" font-size="11" fill="#52607a">
      <text x="20" y="32" letter-spacing="3">EXPLOIT GENEALOGY</text>
    </g>
    <g stroke="#9b1c1c" stroke-width="2" fill="none">
      <circle cx="130" cy="80" r="10" fill="#9b1c1c"/>
      <line x1="130" y1="90" x2="60" y2="140"/>
      <line x1="130" y1="90" x2="200" y2="140"/>
      <circle cx="60" cy="150" r="8" fill="#f5f1ea"/>
      <circle cx="200" cy="150" r="8" fill="#f5f1ea"/>
      <line x1="60" y1="158" x2="40" y2="210"/>
      <line x1="60" y1="158" x2="90" y2="210"/>
      <line x1="200" y1="158" x2="200" y2="210"/>
      <circle cx="40" cy="220" r="6" fill="#9b1c1c"/>
      <circle cx="90" cy="220" r="6" fill="#9b1c1c"/>
      <circle cx="200" cy="220" r="6" fill="#9b1c1c"/>
    </g>
    <g transform="translate(0,250)">
      <rect x="0" y="0" width="260" height="30" fill="#9b1c1c"/>
      <text x="130" y="20" font-family="monospace" font-size="13" fill="#f5f1ea" text-anchor="middle" letter-spacing="3">3 PATHS · LOSS $1.2M</text>
    </g>
  </g>
  <g transform="translate(80,505)" font-family="monospace" font-size="13" fill="#52607a">
    <text x="0" y="0">$ economicfuzz run scenarios/oracle-manip.yml --gen 100</text>
  </g>
  <line x1="80" y1="540" x2="1120" y2="540" stroke="#0e1822" stroke-width="0.7"/>
  <text x="80" y="568" font-family="monospace" font-size="12" fill="#52607a" letter-spacing="3">npm i -g economicfuzz · MIT · v0.1.0 · economicfuzz.vercel.app</text>
</svg>
